<mxfile host="Electron" agent="Mozilla/5.0 (X11; Linux x86_64) AppleWebKit/537.36 (KHTML, like Gecko) draw.io/28.1.2 Chrome/138.0.7204.243 Electron/37.4.0 Safari/537.36" version="28.1.2">
  <diagram name="Page-1" id="oJKZutm5_i8uhPyg-bjR">
    <mxGraphModel dx="1360" dy="1668" grid="1" gridSize="10" guides="1" tooltips="1" connect="1" arrows="1" fold="1" page="1" pageScale="1" pageWidth="700" pageHeight="275" math="0" shadow="0">
      <root>
        <mxCell id="0" />
        <mxCell id="1" parent="0" />
        <mxCell id="9Pl6SZG-0BfQZiTlBOGs-20" value="" style="ellipse;shape=cloud;whiteSpace=wrap;html=1;movable=0;resizable=0;rotatable=0;deletable=0;editable=0;locked=1;connectable=0;" parent="1" vertex="1">
          <mxGeometry x="130" y="-620" width="750" height="640" as="geometry" />
        </mxCell>
        <mxCell id="9Pl6SZG-0BfQZiTlBOGs-1" value="Head Node VM (Public IP SSH Access)" style="swimlane;whiteSpace=wrap;html=1;" parent="1" vertex="1">
          <mxGeometry x="270" y="-380" width="280" height="220" as="geometry">
            <mxRectangle x="30" y="-110" width="100" height="30" as="alternateBounds" />
          </mxGeometry>
        </mxCell>
        <mxCell id="9Pl6SZG-0BfQZiTlBOGs-3" value="NFS Server Exports:&lt;div&gt;&lt;br&gt;&lt;div&gt;&lt;b&gt;data&lt;/b&gt;&lt;/div&gt;&lt;div&gt;&lt;b&gt;config&lt;/b&gt;/hostname/task1.R&lt;/div&gt;&lt;div&gt;&lt;span style=&quot;background-color: transparent; color: light-dark(rgb(0, 0, 0), rgb(255, 255, 255));&quot;&gt;&lt;b&gt;output&lt;/b&gt;/&amp;lt;mask&amp;gt;/hostname/N/trends_N.csv&lt;/span&gt;&lt;/div&gt;&lt;/div&gt;&lt;div&gt;&lt;span style=&quot;background-color: transparent; color: light-dark(rgb(0, 0, 0), rgb(255, 255, 255));&quot;&gt;&lt;br&gt;&lt;/span&gt;&lt;/div&gt;&lt;div&gt;&lt;span style=&quot;background-color: transparent; color: light-dark(rgb(0, 0, 0), rgb(255, 255, 255));&quot;&gt;Each compute node writes to separate directories, without clashing with others.&lt;/span&gt;&lt;/div&gt;&lt;div&gt;&lt;span style=&quot;background-color: transparent; color: light-dark(rgb(0, 0, 0), rgb(255, 255, 255));&quot;&gt;&lt;br&gt;&lt;/span&gt;&lt;/div&gt;&lt;div&gt;&lt;span style=&quot;background-color: transparent; color: light-dark(rgb(0, 0, 0), rgb(255, 255, 255));&quot;&gt;Results of each &quot;mask&quot; from all the nodes are&lt;/span&gt;&lt;/div&gt;&lt;div&gt;&lt;span style=&quot;background-color: transparent; color: light-dark(rgb(0, 0, 0), rgb(255, 255, 255));&quot;&gt;also kept separate&lt;/span&gt;&lt;/div&gt;" style="text;html=1;align=left;verticalAlign=top;whiteSpace=wrap;rounded=0;" parent="9Pl6SZG-0BfQZiTlBOGs-1" vertex="1">
          <mxGeometry x="10" y="30" width="260" height="170" as="geometry" />
        </mxCell>
        <mxCell id="9Pl6SZG-0BfQZiTlBOGs-2" value="Compute Node&amp;nbsp;&lt;div&gt;VM 1..N&lt;/div&gt;" style="swimlane;whiteSpace=wrap;html=1;startSize=40;" parent="1" vertex="1">
          <mxGeometry x="575" y="-400" width="180" height="100" as="geometry">
            <mxRectangle x="370" y="-110" width="120" height="30" as="alternateBounds" />
          </mxGeometry>
        </mxCell>
        <mxCell id="9Pl6SZG-0BfQZiTlBOGs-10" value="NFS Client&lt;div&gt;SoIB Container&lt;/div&gt;" style="text;html=1;align=left;verticalAlign=top;whiteSpace=wrap;rounded=0;" parent="9Pl6SZG-0BfQZiTlBOGs-2" vertex="1">
          <mxGeometry x="15" y="50" width="90" height="30" as="geometry" />
        </mxCell>
        <mxCell id="9Pl6SZG-0BfQZiTlBOGs-18" value="User Computer" style="swimlane;whiteSpace=wrap;html=1;" parent="1" vertex="1">
          <mxGeometry x="80" y="-30" width="280" height="330" as="geometry">
            <mxRectangle x="40" y="60" width="120" height="30" as="alternateBounds" />
          </mxGeometry>
        </mxCell>
        <mxCell id="9Pl6SZG-0BfQZiTlBOGs-19" value="Step 1 : Setup&lt;br&gt;&lt;ol&gt;&lt;li&gt;Create Head Node VM&lt;/li&gt;&lt;li&gt;Setup Head Node VM : data files&lt;/li&gt;&lt;/ol&gt;Step 2: Job Launch&lt;br&gt;&lt;ol&gt;&lt;li&gt;Compute number of nodes required&lt;/li&gt;&lt;li&gt;Configure Head Node&lt;/li&gt;&lt;li&gt;Launch required compute nodes&lt;/li&gt;&lt;li&gt;Initiate job launch from head node&lt;/li&gt;&lt;/ol&gt;&lt;span style=&quot;background-color: transparent; color: light-dark(rgb(0, 0, 0), rgb(255, 255, 255));&quot;&gt;Step 3: Monitor&lt;/span&gt;&lt;div&gt;&lt;ol&gt;&lt;li&gt;Job Status&lt;/li&gt;&lt;li&gt;Costs (use UI?)&lt;/li&gt;&lt;/ol&gt;&lt;div&gt;&lt;span style=&quot;background-color: transparent; color: light-dark(rgb(0, 0, 0), rgb(255, 255, 255));&quot;&gt;Step 4: Collect Results&amp;nbsp;&lt;/span&gt;&lt;/div&gt;&lt;div&gt;&lt;br&gt;&lt;/div&gt;&lt;div&gt;Step 5 : Release Resources&lt;br&gt;&lt;div&gt;&lt;div&gt;&lt;br&gt;&lt;/div&gt;&lt;/div&gt;&lt;/div&gt;&lt;/div&gt;" style="text;html=1;align=left;verticalAlign=top;whiteSpace=wrap;rounded=0;" parent="9Pl6SZG-0BfQZiTlBOGs-18" vertex="1">
          <mxGeometry x="13" y="30" width="260" height="170" as="geometry" />
        </mxCell>
        <mxCell id="9Pl6SZG-0BfQZiTlBOGs-22" value="" style="shape=flexArrow;endArrow=classic;startArrow=classic;html=1;rounded=0;exitX=0.75;exitY=0;exitDx=0;exitDy=0;fillColor=#6CA7FF;fillStyle=solid;" parent="1" source="9Pl6SZG-0BfQZiTlBOGs-18" edge="1">
          <mxGeometry width="100" height="100" relative="1" as="geometry">
            <mxPoint x="440" y="-90" as="sourcePoint" />
            <mxPoint x="290" y="-160" as="targetPoint" />
          </mxGeometry>
        </mxCell>
        <mxCell id="9Pl6SZG-0BfQZiTlBOGs-23" value="&lt;b&gt;SSH&lt;/b&gt;" style="text;html=1;align=center;verticalAlign=middle;whiteSpace=wrap;rounded=0;" parent="1" vertex="1">
          <mxGeometry x="220" y="-90" width="60" height="30" as="geometry" />
        </mxCell>
        <mxCell id="kfuH1VM_WjMSt7jWmNFU-1" value="Each compute VM can&amp;nbsp;&lt;span style=&quot;background-color: transparent; color: light-dark(rgb(0, 0, 0), rgb(255, 255, 255));&quot;&gt;shutdown&lt;/span&gt;&lt;span style=&quot;background-color: transparent; color: light-dark(rgb(0, 0, 0), rgb(255, 255, 255));&quot;&gt;&amp;nbsp;and&lt;/span&gt;&lt;div&gt;&lt;div&gt;&lt;span style=&quot;background-color: transparent; color: light-dark(rgb(0, 0, 0), rgb(255, 255, 255));&quot;&gt;deallocate itself in&amp;nbsp;&lt;/span&gt;&lt;span style=&quot;background-color: transparent; color: light-dark(rgb(0, 0, 0), rgb(255, 255, 255));&quot;&gt;Azure. This stops billing most of the node resources (except storage) when the node is finished computing.&lt;/span&gt;&lt;/div&gt;&lt;/div&gt;" style="text;html=1;align=left;verticalAlign=middle;whiteSpace=wrap;rounded=0;" vertex="1" parent="1">
          <mxGeometry x="575" y="-290" width="210" height="90" as="geometry" />
        </mxCell>
      </root>
    </mxGraphModel>
  </diagram>
</mxfile>
